<svg id="Logo" xmlns="http://www.w3.org/2000/svg" viewBox="0 0 502.92 90.41"><defs><style>.cls-1{fill:#5eb3e4;}.cls-2{fill:#238dc1;}.cls-3{fill:#00538b;}.cls-4{fill:#fff;}</style></defs><path class="cls-1" d="M3.64,63c.21.49.44,1,.67,1.47s.31.64.47,1,.2.4.31.6c.41.8.85,1.58,1.31,2.35h0A45.15,45.15,0,0,0,9.7,73.16l2.82.56a35.67,35.67,0,0,0,7.12.66c6.77,0,14-1.58,20.93-3.11,7.19-1.58,14.63-3.21,21.87-3.21a35.5,35.5,0,0,1,18.23,4.58l.31.18a44.59,44.59,0,0,0,2.77-4c.08-.12.16-.25.23-.38.32-.53.63-1.07.93-1.61l.07-.13.1-.19C60.37,47.49,28.91,77.79,3.64,63Z"/><path class="cls-2" d="M41.89,73.41C34.68,75,27.22,76.65,20,76.65A40.71,40.71,0,0,1,12,75.91a45.52,45.52,0,0,0,9.47,7.79l3.24-.38A149.63,149.63,0,0,0,39.5,80.56c7.24-1.61,14.73-3.27,22-3.27A37.85,37.85,0,0,1,73.25,79l1.41.45a45,45,0,0,0,4.79-4.78,30.77,30.77,0,0,0-16.63-4.41C56.06,70.28,48.86,71.87,41.89,73.41Z"/><path class="cls-3" d="M40.85,82.75A158.46,158.46,0,0,1,24.92,85.6a45.18,45.18,0,0,0,47.36-4.2,28.6,28.6,0,0,0-10.41-1.74C55.29,79.66,48,81.23,40.85,82.75Z"/><path class="cls-4" d="M34.62,63.13h.05c.81-.17,1.63-.35,2.44-.54l.11,0L39.64,62l.08,0,2.42-.58c7.55-1.8,15.36-3.67,22.93-3.67.69,0,1.36,0,2,.06l.49,0c.66,0,1.32.09,2,.16h0c.66.07,1.32.17,2,.27l.38.06c.63.11,1.26.24,1.88.38h0c-2.55-3.92-4.43-7-4.43-7-18-27.27-30.66-32.14-36.18-32.79A4.89,4.89,0,0,0,29,20.09a4.74,4.74,0,0,0-.66,4c1.17,5.35.26,27.09-6.09,40.8A76.59,76.59,0,0,0,34.62,63.13Zm4-38.41c9,3.29,18.62,15.9,25,25.94a.24.24,0,0,1-.39.29c-4.76-6-3.83-5.92-12.08-15-2.38-2.61-7.91-8.59-13.26-10.83-.63-.27-1.09-.45-1.06-.69C36.9,24,38.08,24.51,38.65,24.72Z"/><path class="cls-4" d="M4.79,61a27.8,27.8,0,0,0,8.83,3.3,36.93,36.93,0,1,1,65.27-4,32.14,32.14,0,0,1,7.22,4.13A45.21,45.21,0,1,0,2.36,59.6Z"/><path class="cls-4" d="M384.08,54.31a13.8,13.8,0,0,0,5.69-4.65c2.54-3.58,3.06-7.7,2.75-12-.39-5.36-2.37-9.84-6.83-12.79A17.2,17.2,0,0,0,376,22.32c-10.32,0-35.55,0-35.87,0V68.07H351V33.89c.23,0,18.39-.07,25.34,0,3.14,0,5.05,2.05,5.4,5.33s-1.25,6-4.09,6.66a9,9,0,0,1-2.14.19c-4.68,0-13,0-17.67,0-.87,0-1.2.16-1.18,1.18.05,2.07,0,7.63,0,8.61.45,0,10.43,0,13.27-.09a2.15,2.15,0,0,1,1.83,1c2.92,3.57,5.88,7.1,8.81,10.66a1.71,1.71,0,0,0,1.52.68c4.55,0,14.17,0,14.73,0l-13-13.37-.24-.25A2.14,2.14,0,0,0,384.08,54.31Z"/><path class="cls-4" d="M107.89,42.7a23.69,23.69,0,0,1,3.9-11.1,20.2,20.2,0,0,1,15.46-9,91,91,0,0,1,19,.07,20.81,20.81,0,0,1,18.24,17.81,30.79,30.79,0,0,1,.38,4.83v-.15a30.79,30.79,0,0,1-.38,4.83,20.8,20.8,0,0,1-18.24,17.81,89.68,89.68,0,0,1-19,.07,20.19,20.19,0,0,1-15.46-9A22.94,22.94,0,0,1,108,48.14,29.71,29.71,0,0,1,107.89,42.7Zm11.55,2.38c0,5.94,4.12,10.9,9.82,11.24a122.14,122.14,0,0,0,13.93,0,10.87,10.87,0,0,0,10.23-11.27v.15A10.87,10.87,0,0,0,143.19,34a122.14,122.14,0,0,0-13.93,0c-5.7.34-9.84,5.3-9.82,11.24Z"/><path class="cls-4" d="M235.31,33.83v22.6c.46,0,25.83,0,35.22,0,.88,0,1.19.2,1.17,1.14-.05,3.16,0,6.33,0,9.49v1H223.81V22.32h47.87V33.83Z"/><path class="cls-4" d="M217.41,56.43V68.06c-.3,0-17.18.11-25.32,0-9.84-.06-18-5.66-21.16-14.87-2.81-8.25-2.06-16.2,3.5-23.19,3.71-4.66,8.79-6.93,14.6-7.6,1.3-.16,27.88-.05,28.34-.05V33.85c-.41,0-17.14,0-25.13,0-4.53,0-8.08,1.94-10.1,6.11-3.42,7.05.4,16.39,9.9,16.44,8,0,16,0,24.06,0Z"/><path class="cls-4" d="M445.85,56.43V68.06c-.31,0-17.4.06-25.66,0-10-.06-18.25-5.62-21.43-14.83-2.84-8.25-2.08-16.2,3.55-23.19,3.76-4.66,8.91-6.93,14.79-7.6,1.31-.16,28.25-.13,28.71-.13V33.85c-.41,0-17.36,0-25.46,0-4.59,0-8.18,1.94-10.23,6.11-3.47,7.05.4,16.39,10,16.44C428.27,56.46,445.33,56.43,445.85,56.43Z"/><path class="cls-4" d="M463.8,22.31V68.07H452.31V22.31Z"/><path class="cls-4" d="M268.41,40.55V49.1h-27.5V40.55Z"/><path class="cls-4" d="M320.06,61.56a1.4,1.4,0,0,0-1.41-.81c-4.93,0-15.32,0-20.25,0h-1.14c.16-.34,3.23-5.61,4.62-8a1.24,1.24,0,0,1,1.28-.72c1.86,0,9.16,0,11.26,0-2.22-3.77-6.29-10.23-8.49-14-1.33,2.28-13.19,21.66-17.6,29.23a1.37,1.37,0,0,1-1.4.79c-4,0-8,0-12.26,0C275,67.5,291.8,39.45,300,25.84A13.81,13.81,0,0,1,302.22,23a5.22,5.22,0,0,1,7.29,0,11.49,11.49,0,0,1,2,2.49C319.91,39.4,337,67.76,337.12,68.07H324Z"/><path class="cls-4" d="M502.92,68.08H491.43V49.77H469.49V40c.35,0,15.76,0,20.8,0,.84,0,1.12-.19,1.11-1.08,0-5.07,0-16.16,0-16.59h11.54Z"/></svg>