<svg id="Layer_1" data-name="Layer 1" xmlns="http://www.w3.org/2000/svg" viewBox="0 0 768 322"><defs><style>.cls-1{fill:#396b90;}</style></defs><title>WhiteShark</title><path class="cls-1" d="M753.62,166a50.69,50.69,0,0,0-8.21-4.71c-28.62-12.54-57.53-24.31-87.59-33.09-26.6-7.76-53.15-15.76-80.45-20.67a944,944,0,0,0-109.29-13.2c-12.43-.76-22.47-5.47-29.72-16.22C429.51,65,420.11,52.27,410.61,39.61c-6-8.06-14.25-13.57-23.51-17.48-1.65-.7-3.25-1.58-4.36.95-.32.71-1.7,1-2.59,1.4l1.07.23c.07,3.74.47,7.5.13,11.2s-2.15,7.48-2,11.14a69.41,69.41,0,0,1-1.08,14c-.24,1.64,1.37,3.63,1,5.14-.5,1.87-2.68,3.24-3.34,5.11-1.51,4.27-2.45,8.74-3.82,13.07a14.74,14.74,0,0,1-2.33,4.16c-2.64,3.55-5.51,7-8.1,10.53-3.17,4.38-6.4,7.88-12.36,9.09-12.25,2.49-24.26,6.16-36.42,9.15-31.2,7.67-62.46,15.08-93.61,23-6.1,1.55-10.88.58-15.3-3.53a7.2,7.2,0,0,0-7.68-1.82c.21,1.3.45,2.4.55,3.52.36,4.06-1.83,7.52-5.63,8.32q-23.2,4.91-46.45,9.6a20.38,20.38,0,0,1-6.74.28,36.22,36.22,0,0,1-3.54-4.28c-10.51-17-26.64-32.08-37.32-43.17-24.75-25.74-43.85-36.82-65.13-49A155.11,155.11,0,0,0,14.5,51.34c.49,8.78,6.83,27.81,7.32,36.59,3.9.49,5.61-4.14,9.51-3.66,9.38,10.59,11,13.18,24.88,34.4,11.85,18.08,17.57,29.27,28.54,49-4.43,9.4-7.32,23.42-18.29,44.64-12.85,24.84-26,31.27-24.88,33.66,1,2.16,13,.67,35.85-9.51,9.51-4.23,14-7.7,25.62-19,23.73-23.08,23.94-26.78,27.82-31.36.69.21,1.33-.17,1.88-1.32a17.37,17.37,0,0,1,.89-1.61c.89-.93,1.7-1.84,2.44-2.71,2.14-1.6,4.81-2,8.06-1.51,13.12,2.09,26.25,4.12,39.35,6.3a4,4,0,0,1,2.66,2.07c2.24,5.94,5.43,7,10.15,2.64a7,7,0,0,1,6.5-1.85c8,1.31,16,2.38,24,3.81,7,1.26,14,2.88,21.25,4.41l-2.66,2.9c4.42,2.23,8.75,4,12.67,6.48,3.36,2.11,3.3,4.78.53,7.56-.44.45-1.17.75-1.37,1.28-.36,1-.9,2.35-.48,3a3.26,3.26,0,0,0,2.91.76,50.21,50.21,0,0,0,5.55-2.43c4.29-1.84,8.46-4.27,12.94-5.31,6.45-1.48,13.45-3.62,19.67-2.49,16.77,3,33.24,7.71,49.85,11.64,32,7.57,54.82,11.53,65,12.39,4.61.39,8.42.73,11,.73,8.05,0,12.1-1,13.17,0h.1c.62,2.81,1.23,5.85,1.82,9.09,1.72,9.44,2.87,18.83,5.67,42.93,2.46,21.12,3.17,27.54,6.48,28.35,2.4.59,5.42-1.93,13-13,12.37-18.06,21.34-31.17,26.74-52.65a136.4,136.4,0,0,0,2.77-14.33c5.24.48,10.53,1.19,12.15,1.18,42.32-.37,84.59-1.81,126.5-8.42,20.17-3.18,40.09-7.23,58.66-16.23,8.23-4,8.35-3.95,3.31-11.89a141.86,141.86,0,0,0,38.19-7.57c9.32-3.23,17.34-8.26,22.84-16.73C757.26,170,757.14,168.43,753.62,166Z"/></svg>